<svg xmlns="http://www.w3.org/2000/svg" xmlns:xlink="http://www.w3.org/1999/xlink" width="1080" zoomAndPan="magnify" viewBox="0 0 810 1439.999935" height="1920" preserveAspectRatio="xMidYMid meet" version="1.0"><defs><clipPath id="33fa5f9b7d"><path d="M 158.664062 663.875 L 359.664062 663.875 L 359.664062 776.375 L 158.664062 776.375 Z M 158.664062 663.875 " clip-rule="nonzero"/></clipPath><clipPath id="598810d29e"><path d="M 286.402344 663.875 L 487.402344 663.875 L 487.402344 776.375 L 286.402344 776.375 Z M 286.402344 663.875 " clip-rule="nonzero"/></clipPath><clipPath id="e8c88cb144"><path d="M 450.332031 663.617188 L 651.332031 663.617188 L 651.332031 776.117188 L 450.332031 776.117188 Z M 450.332031 663.617188 " clip-rule="nonzero"/></clipPath><clipPath id="12193ae973"><path d="M 322.59375 663.617188 L 523.59375 663.617188 L 523.59375 776.117188 L 322.59375 776.117188 Z M 322.59375 663.617188 " clip-rule="nonzero"/></clipPath></defs><g clip-path="url(#33fa5f9b7d)"><path fill="#853439" d="M 215.660156 663.898438 L 359.519531 663.898438 L 359.519531 776.375 L 215.660156 776.375 C 210.390625 776.375 206.0625 772.386719 205.542969 767.273438 C 204.125 770.5 200.894531 772.761719 197.132812 772.761719 C 192.0625 772.761719 187.953125 768.667969 187.953125 763.613281 C 187.953125 761.667969 188.566406 759.863281 189.609375 758.378906 C 178.261719 759.523438 179.101562 751.445312 176.101562 741.203125 C 173.066406 730.820312 158.804688 720.140625 158.804688 720.140625 C 158.804688 720.140625 173.066406 709.453125 176.105469 699.070312 C 179.101562 688.828125 178.261719 680.75 189.613281 681.894531 C 188.574219 680.410156 187.957031 678.605469 187.957031 676.660156 C 187.957031 671.609375 192.066406 667.511719 197.136719 667.511719 C 200.898438 667.511719 204.128906 669.773438 205.546875 673 C 206.0625 667.886719 210.390625 663.898438 215.660156 663.898438 Z M 215.660156 663.898438 " fill-opacity="1" fill-rule="nonzero"/></g><g clip-path="url(#598810d29e)"><path fill="#853439" d="M 343.398438 663.898438 L 487.257812 663.898438 L 487.257812 776.375 L 343.398438 776.375 C 338.128906 776.375 333.800781 772.386719 333.28125 767.273438 C 331.863281 770.5 328.632812 772.761719 324.871094 772.761719 C 319.800781 772.761719 315.691406 768.667969 315.691406 763.613281 C 315.691406 761.667969 316.304688 759.863281 317.347656 758.378906 C 306 759.523438 306.839844 751.445312 303.839844 741.203125 C 300.804688 730.820312 286.542969 720.140625 286.542969 720.140625 C 286.542969 720.140625 300.804688 709.453125 303.84375 699.070312 C 306.839844 688.828125 306 680.75 317.351562 681.894531 C 316.3125 680.410156 315.695312 678.605469 315.695312 676.660156 C 315.695312 671.609375 319.804688 667.511719 324.875 667.511719 C 328.636719 667.511719 331.867188 669.773438 333.285156 673 C 333.800781 667.886719 338.128906 663.898438 343.398438 663.898438 Z M 343.398438 663.898438 " fill-opacity="1" fill-rule="nonzero"/></g><g clip-path="url(#e8c88cb144)"><path fill="#853439" d="M 594.335938 776.097656 L 450.476562 776.097656 L 450.476562 663.617188 L 594.335938 663.617188 C 599.601562 663.617188 603.933594 667.609375 604.453125 672.722656 C 605.867188 669.492188 609.101562 667.234375 612.863281 667.234375 C 617.929688 667.234375 622.042969 671.328125 622.042969 676.378906 C 622.042969 678.328125 621.429688 680.132812 620.382812 681.617188 C 631.734375 680.472656 630.894531 688.550781 633.890625 698.792969 C 636.925781 709.175781 651.191406 719.855469 651.191406 719.855469 C 651.191406 719.855469 636.925781 730.542969 633.886719 740.925781 C 630.894531 751.167969 631.734375 759.246094 620.378906 758.101562 C 621.417969 759.585938 622.039062 761.390625 622.039062 763.335938 C 622.039062 768.386719 617.925781 772.484375 612.855469 772.484375 C 609.097656 772.484375 605.863281 770.222656 604.449219 766.996094 C 603.933594 772.109375 599.601562 776.097656 594.335938 776.097656 Z M 594.335938 776.097656 " fill-opacity="1" fill-rule="nonzero"/></g><g clip-path="url(#12193ae973)"><path fill="#853439" d="M 466.597656 776.097656 L 322.738281 776.097656 L 322.738281 663.617188 L 466.597656 663.617188 C 471.863281 663.617188 476.195312 667.609375 476.714844 672.722656 C 478.128906 669.492188 481.363281 667.234375 485.125 667.234375 C 490.191406 667.234375 494.304688 671.328125 494.304688 676.378906 C 494.304688 678.328125 493.691406 680.132812 492.644531 681.617188 C 503.996094 680.472656 503.15625 688.550781 506.152344 698.792969 C 509.1875 709.175781 523.453125 719.855469 523.453125 719.855469 C 523.453125 719.855469 509.1875 730.542969 506.148438 740.925781 C 503.15625 751.167969 503.996094 759.246094 492.640625 758.101562 C 493.679688 759.585938 494.300781 761.390625 494.300781 763.335938 C 494.300781 768.386719 490.1875 772.484375 485.117188 772.484375 C 481.359375 772.484375 478.125 770.222656 476.710938 766.996094 C 476.195312 772.109375 471.863281 776.097656 466.597656 776.097656 Z M 466.597656 776.097656 " fill-opacity="1" fill-rule="nonzero"/></g></svg>